<?xml version="1.0" standalone="no"?><!DOCTYPE svg PUBLIC "-//W3C//DTD SVG 1.1//EN" "http://www.w3.org/Graphics/SVG/1.1/DTD/svg11.dtd"><svg class="icon" height="512" viewBox="0 0 1024 1024" version="1.1" xmlns="http://www.w3.org/2000/svg"><path d="M494.933333 556.373333L269.653333 443.733333c-3.413333-3.413333-10.24-3.413333-17.066666 0L10.24 556.373333c-6.826667 0-10.24 6.826667-10.24 17.066667v307.2c0 6.826667 3.413333 13.653333 10.24 17.066667L242.346667 1024l232.106666-126.293333c6.826667-3.413333 10.24-10.24 10.24-17.066667v-307.2c20.48-10.24 17.066667-17.066667 10.24-17.066667zM259.413333 477.866667l51.2 23.893333-194.56 98.986667-58.026666-30.72L259.413333 477.866667z m-23.893333 498.346666l-197.973333-105.813333v-266.24l61.44 34.133333v58.026667l44.373333 20.48v-54.613333l92.16 51.2v262.826666z m17.066667-296.96l-88.746667-47.786666 197.973333-102.4 88.746667 44.373333-197.973333 105.813333zM1013.76 556.373333L788.48 443.733333c-3.413333-3.413333-10.24-3.413333-17.066667 0l-242.346666 112.64c-6.826667 3.413333-10.24 10.24-10.24 17.066667v307.2c0 6.826667 3.413333 13.653333 10.24 17.066667l232.106666 126.293333 232.106667-126.293333c6.826667-3.413333 10.24-10.24 10.24-17.066667v-307.2c20.48-10.24 17.066667-17.066667 10.24-17.066667zM778.24 477.866667l51.2 23.893333-194.56 98.986667-58.026667-30.72 201.386667-92.16z m-23.893333 498.346666l-197.973334-105.813333v-266.24l61.44 34.133333v58.026667l44.373334 20.48v-54.613333l92.16 51.2v262.826666z m17.066666-296.96L682.666667 631.466667l197.973333-102.4 88.746667 44.373333-197.973334 105.813333zM757.76 116.053333L532.48 3.413333c-3.413333-3.413333-10.24-3.413333-17.066667 0l-238.933333 112.64c-6.826667 0-10.24 6.826667-10.24 13.653334v307.2c0 6.826667 3.413333 13.653333 10.24 17.066666l232.106667 126.293334 232.106666-126.293334c6.826667-3.413333 10.24-10.24 10.24-17.066666v-307.2c20.48-6.826667 13.653333-13.653333 6.826667-13.653334z m-221.866667-71.68l51.2 23.893334-194.56 102.4-58.026666-30.72 201.386666-95.573334z m-37.546666 498.346667l-197.973334-105.813333V167.253333l61.44 34.133334v58.026666l44.373334 20.48V225.28L498.346667 273.066667v269.653333z m20.48-303.786667l-88.746667-47.786666 197.973333-102.4L716.8 133.12 518.826667 238.933333z" /></svg>